<svg width="549" height="155" viewBox="0 0 549 155" fill="none" xmlns="http://www.w3.org/2000/svg">
<g clip-path="url(#clip0_4_3)">
<path d="M0 77.3527V154.574H76.5555H153.111V77.3527V0.131564H76.5555H0V77.3527ZM31.5542 2.55471C33.5779 3.1139 35.4152 5.61693 35.4152 7.80043C35.4152 8.86554 34.4566 11.1822 33.285 12.9396C30.7553 16.7474 30.0097 18.7978 29.9831 22.0997C29.9565 24.3364 29.9831 24.5228 30.5689 24.7625C31.2613 25.0554 31.2613 25.0554 30.8885 29.4756C30.7553 31.2863 30.4358 35.2006 30.2228 38.2096C29.9831 41.2186 29.7168 44.3607 29.637 45.1861C29.5304 46.1714 29.5837 46.7305 29.7435 46.7305C30.276 46.7305 30.5689 45.2394 30.8618 41.1387C31.5275 32.2183 32.1666 25.4814 32.3796 25.1086C32.4595 24.9755 32.6459 24.8956 32.8057 24.8956C33.2317 24.8956 32.8323 32.9905 31.927 42.6831C31.6074 45.9583 31.7139 46.7305 32.3264 45.8785C32.6725 45.3991 32.8323 43.8015 33.285 35.5468C33.6844 28.3572 33.8708 25.5879 34.0039 25.3483C34.0572 25.2418 34.3501 25.1619 34.6696 25.1619C35.1756 25.1619 35.2022 25.2684 35.0424 27.0791C34.9626 28.1442 34.8294 30.1679 34.7495 31.5526C34.4566 37.1977 34.0838 43.2157 33.9507 44.3873C33.8175 45.3991 33.8708 45.6654 34.1903 45.6654C34.4034 45.6654 34.643 45.4524 34.7229 45.1861C34.9093 44.5471 35.1223 41.3783 35.2821 36.8782C35.4685 31.4727 35.6815 27.6117 35.8413 26.2803C35.9478 25.3749 36.0809 25.1619 36.4271 25.2151C36.8265 25.295 36.8798 25.6944 36.7999 28.8898C36.7466 30.8603 36.6135 34.1089 36.4537 36.0794C36.1874 40.0203 36.1342 44.9731 36.3472 45.1861C36.4271 45.266 37.0129 45.2394 37.6254 45.1062C39.5692 44.7334 43.4569 44.121 45.8001 43.8015C47.0517 43.6417 48.4363 43.4553 48.8624 43.3754C49.315 43.2955 50.8062 43.1358 52.1909 43.0026C53.5755 42.8429 55.0933 42.6831 55.5194 42.6032C56.8508 42.4168 64.8125 41.9641 70.431 41.7777C75.7566 41.618 90.2689 42.044 92.7985 42.4434C93.8104 42.6032 92.9583 42.6831 89.0706 42.8162C86.3013 42.9227 81.4284 43.1091 78.2863 43.2689C71.363 43.5884 69.6855 43.6151 69.8718 43.2955C69.9517 43.189 72.5613 42.976 75.6768 42.8695C85.822 42.4967 86.1682 42.2837 76.6886 42.257C71.7891 42.2304 66.2771 42.3369 64.4397 42.4701C62.6024 42.6298 59.3804 42.8695 57.2502 43.0293C55.1199 43.1624 52.6169 43.402 51.6583 43.5352C50.6997 43.6683 48.7026 43.9346 47.2114 44.121C45.7203 44.2808 44.5486 44.4938 44.6019 44.5737C44.6285 44.6802 44.1226 44.7601 43.4569 44.8133C42.7912 44.84 42.1521 44.9731 42.0722 45.1062C41.9923 45.2394 41.5397 45.2926 41.087 45.266C40.3947 45.2394 40.2615 45.2926 40.5012 45.5855C40.7408 45.8518 40.6609 45.9317 40.0219 45.9317C39.5958 45.9317 39.1165 45.7986 38.9568 45.6388C38.7437 45.4258 38.6106 45.4258 38.5041 45.6388C38.3976 45.7986 38.5041 45.9317 38.7704 45.9317C39.1165 45.9317 39.1431 46.0116 38.8769 46.3311C38.5041 46.7838 37.9449 46.8903 38.2112 46.4643C38.2911 46.3045 38.2644 46.198 38.1047 46.198C37.6786 46.198 37.5188 46.6773 37.865 46.8371C38.0514 46.9436 37.9449 46.9436 37.5987 46.8903C36.8798 46.7572 37.0662 47.13 37.8117 47.343C38.1047 47.4229 38.2911 47.3696 38.1845 47.2365C38.1047 47.1033 38.1047 46.9968 38.1845 46.9968C38.2378 46.9968 38.5041 46.9169 38.7704 46.8104C39.0899 46.7039 39.1698 46.7305 39.0366 46.9436C38.9301 47.13 38.9834 47.2631 39.1165 47.2631C39.2763 47.2631 39.4094 47.0235 39.4094 46.7039C39.4094 46.2779 39.5426 46.1714 40.0219 46.2512C40.3414 46.3045 40.5811 46.4909 40.5544 46.6507C40.5012 46.8903 40.6609 46.9169 41.1402 46.7305C41.513 46.5974 41.9923 46.5442 42.2054 46.624C42.4184 46.7305 42.6048 46.6773 42.6048 46.5175C42.6048 46.3844 43.0308 46.3045 43.5368 46.3578C44.0427 46.3844 44.4687 46.3311 44.4687 46.198C44.4687 46.0648 45.1611 45.9051 46.0132 45.7986C46.8386 45.7187 48.7292 45.479 50.1938 45.266C53.9749 44.7334 57.0105 44.3873 61.9101 43.9346C68.7002 43.3222 69.4991 43.2689 69.4991 43.5086C69.4991 43.6417 68.2742 43.8281 66.783 43.908C62.7622 44.1743 55.4661 44.9465 52.7234 45.3991C51.9246 45.5323 50.3535 45.7986 49.2618 45.9583C46.6789 46.3578 39.4361 47.6892 37.5455 48.1418L36.0809 48.4614L35.8945 50.3253C35.8146 51.3638 35.6016 55.6509 35.4152 59.9114C35.1489 66.9678 34.856 73.7313 34.4832 82.2789C34.4034 84.0364 34.2702 86.2997 34.217 87.3382C34.1371 88.3501 33.8974 93.8088 33.6844 99.454C33.4714 105.099 33.1518 112.741 32.9921 116.416C32.8323 120.117 32.7524 123.659 32.8589 124.271L33.0187 125.416L24.9504 128.052C20.5302 129.49 16.749 130.742 16.5892 130.822C16.1366 130.982 16.1366 129.623 16.5626 129.171C16.962 128.825 20.5568 127.36 22.3675 126.854C24.5776 126.242 24.7108 125.949 25.0303 121.156C25.1635 119.265 25.4031 115.963 25.5629 113.833C25.696 111.703 25.9357 108.294 26.0954 106.244C26.3351 102.782 26.7345 97.6433 27.0274 94.1284C27.2404 91.3058 27.7197 84.8618 28.2257 76.9533C28.5186 72.5597 28.8647 67.7667 29.0245 66.3021C29.1577 64.8376 29.344 62.6275 29.4239 61.3759C29.5038 60.1244 29.6902 57.861 29.8234 56.3166C29.9831 54.7722 30.0896 52.7485 30.0896 51.7899C30.0896 50.1922 30.063 50.1123 29.6636 50.5117C29.2109 50.9644 28.8647 53.787 28.2789 62.0949C28.1458 64.0387 27.8795 65.7962 27.7197 66.0092C27.56 66.1956 26.841 66.5684 26.1487 66.8081C25.4564 67.0743 24.6575 67.3672 24.3646 67.5004C24.0717 67.6335 23.0598 68.0596 22.1012 68.459C14.6188 71.6277 9.63933 78.8173 9.58608 86.4595C9.58608 90.2939 10.6778 94.1816 13.1809 99.1611C13.9531 100.732 14.8052 102.729 15.0448 103.581C15.9768 106.75 14.9649 109.759 11.6897 113.434C10.6778 114.605 9.26654 116.309 8.60084 117.241C7.40258 118.919 5.59188 122.62 5.59188 123.446C5.59188 123.685 5.40548 124.298 5.19246 124.777L4.79304 125.683L4.95281 124.617C5.35223 122.114 7.05642 118.413 9.00026 115.724C9.63933 114.845 9.82573 114.312 9.7991 113.514C9.77247 112.848 9.90561 112.369 10.1453 112.209C10.3583 112.076 10.4115 111.969 10.2518 111.969C10.1186 111.942 9.18666 111.889 8.20142 111.809L6.44397 111.676L5.9913 113.221C5.75165 114.073 5.43211 115.244 5.27234 115.83C5.08595 116.416 4.87292 117.002 4.79304 117.162C4.68653 117.295 4.26048 118.44 3.86106 119.691C3.43501 120.943 3.06222 121.795 2.98234 121.608C2.92908 121.422 3.08885 120.756 3.3285 120.144C3.94094 118.679 5.75165 113.141 5.96467 112.076C6.15107 111.277 6.17769 111.277 7.802 111.277C9.7991 111.25 10.9175 110.744 11.8495 109.36C13.4205 107.07 13.3673 104.567 11.7163 102.916C10.8908 102.09 10.3583 101.824 8.6541 101.424L6.60374 100.945L6.81677 100.12C7.08305 99.2143 7.05642 95.4864 6.79014 88.9093C6.57711 83.9565 6.84339 82.1191 8.30793 78.4977C10.305 73.5716 14.9117 69.3111 20.9562 66.8081C24.0184 65.5299 24.9238 64.9974 25.3498 64.2251C25.5096 63.9322 25.7226 61.7487 25.8558 59.4055C25.9889 57.0356 26.2286 54.2929 26.3617 53.281C26.5215 52.2692 26.5481 51.3372 26.4416 51.2307C26.2552 51.0709 23.8321 51.923 17.9739 54.213C15.9768 55.0119 10.1186 57.8344 6.4706 59.8049C5.56525 60.2842 4.73978 60.6037 4.6599 60.5238C4.55339 60.444 4.42025 59.6984 4.34036 58.8995C4.20722 57.4883 4.23385 57.3817 5.00606 56.6628C5.48537 56.2367 6.36409 55.7042 6.97653 55.4645C7.61561 55.2249 9.45294 54.4793 11.0506 53.787C12.6749 53.1213 15.3644 52.0029 17.0419 51.3638C18.7195 50.6981 20.4769 50.0058 20.903 49.8194C21.3556 49.633 22.1279 49.3135 22.6338 49.1271C24.8439 48.3016 26.3617 47.5294 26.6014 47.0767C26.8943 46.4909 27.7197 37.6504 28.1192 30.594C28.2789 27.6383 28.2789 27.6117 27.6665 27.2921C26.7878 26.8128 26.628 26.5199 26.628 25.3483C26.628 24.4962 26.5481 24.363 26.0422 24.363C25.696 24.363 24.9771 24.2832 24.4445 24.2033C23.5391 24.0435 23.406 24.0968 23.193 24.7092C22.8202 25.6678 22.474 25.8009 21.1426 25.4282C18.9591 24.8157 18.2934 23.0849 19.7047 21.6736C20.397 20.9547 20.6367 20.8748 21.8882 20.9547C23.193 21.0345 23.2995 21.0878 23.3794 21.7535C23.4593 22.3659 23.619 22.4991 24.4445 22.6322C26.7345 23.005 26.5481 23.0849 26.8676 21.4606C27.0274 20.6351 27.1872 19.5167 27.2404 18.9576L27.3203 17.9723L26.0954 17.9457C24.338 17.8924 24.1516 17.9457 23.5391 18.6913C23.0865 19.2505 22.8734 19.3303 22.1545 19.1972C20.6633 18.851 19.2787 16.8273 19.7313 15.6291C19.9976 14.9101 21.542 14.1911 22.4208 14.3509C22.7669 14.4308 23.193 14.4841 23.3794 14.4841C23.5391 14.5107 23.6989 14.7237 23.6989 15.0166C23.6989 15.6557 24.0983 15.9486 25.5895 16.348C27.6665 16.9338 28.0659 16.561 32.2465 10.3833C32.7791 9.5845 33.285 8.51938 33.3649 8.01345C33.9773 4.17902 29.5304 2.10204 27.1872 5.08437C26.3883 6.09623 26.4949 6.97496 27.5333 8.01345C28.9979 9.47799 30.4092 9.1052 29.637 7.45426C29.1044 6.36251 29.3174 5.72344 30.2228 5.72344C31.2879 5.72344 32.2199 6.89507 32.2199 8.22647C32.2199 8.83892 32.0601 9.50462 31.8737 9.71764C30.4092 11.5816 27.4268 11.4485 25.7493 9.47799C25.1368 8.7324 25.0303 8.35961 25.0303 6.97496C25.0303 4.79146 25.6428 3.7796 27.5067 2.9275C29.0511 2.20855 29.9565 2.12866 31.5542 2.55471ZM43.3237 13.8982C44.735 15.6557 43.9894 17.2001 41.5663 17.5995C40.6077 17.7593 40.5012 17.706 40.1018 16.9605C39.6491 16.1084 39.1964 15.8421 38.1313 15.8421C37.0395 15.8421 36.2141 15.5492 36.2141 15.1764C36.2141 14.8036 37.0395 14.5107 38.2112 14.5107C39.5692 14.5107 40.155 14.2178 40.3414 13.5254C40.5012 12.913 40.5811 12.8597 41.6196 12.9929C42.4184 13.0994 42.8977 13.3657 43.3237 13.8982ZM42.4716 20.289C43.9096 21.8067 43.9096 23.3245 42.4716 24.0169C41.3799 24.5494 40.3947 24.3098 39.4627 23.3512C38.9568 22.8719 38.2911 22.5523 37.2792 22.3659C36.2407 22.1795 35.788 21.9665 35.7348 21.6204C35.6549 21.2476 35.8679 21.1677 37.1194 21.1677C38.3709 21.1677 38.797 21.0345 39.729 20.3688C41.087 19.3836 41.5929 19.357 42.4716 20.289ZM47.0517 45.2926C46.9718 45.3725 46.7321 45.3991 46.5457 45.3193C46.3327 45.2394 46.4126 45.1595 46.7055 45.1595C46.9984 45.1329 47.1582 45.2128 47.0517 45.2926ZM41.4065 45.6654C41.4864 45.7986 41.4332 45.9317 41.3 45.9317C41.1402 45.9317 41.0071 45.7986 41.0071 45.6654C41.0071 45.5057 41.0604 45.3991 41.1136 45.3991C41.1935 45.3991 41.3266 45.5057 41.4065 45.6654ZM75.2241 52.0828C79.4313 53.0946 82.7598 54.4793 85.5025 56.3166C87.7659 57.8344 91.2275 61.3759 92.9317 63.9589C93.7039 65.1039 96.9791 71.3881 100.228 77.9386C103.45 84.5157 106.219 89.8679 106.326 89.8679C106.432 89.8679 107.098 88.643 107.817 87.1252C110.213 82.0925 113.622 74.8497 115.113 71.7609C115.912 70.0833 116.95 67.8465 117.429 66.8347C121.557 57.9676 122.196 56.8226 123.847 55.1982C126.51 52.5887 128.294 52.0561 134.498 52.0561H138.918L138.625 52.9615C138.466 53.4674 138.226 53.8136 138.093 53.7337C137.96 53.6272 137.906 53.7603 138.013 54C138.173 54.426 137.8 54.9053 137.587 54.5326C137.534 54.3994 137.534 54.4793 137.587 54.6657C137.667 55.0119 136.122 58.9794 135.803 59.2457C135.723 59.3256 135.19 60.444 134.631 61.7754C134.072 63.0801 133.486 64.4115 133.3 64.7044C133.113 64.9974 132.767 65.7163 132.554 66.3021C132.155 67.2874 125.338 82.2257 123.554 86.0068C123.154 86.8856 121.85 89.7081 120.678 92.2644C118.042 98.0427 117.057 100.173 116.045 102.356C115.619 103.288 115.06 104.54 114.847 105.152C114.261 106.59 113.435 107.842 112.796 108.241C112.423 108.481 110.559 108.561 106.139 108.534H99.9881L99.4023 107.789C99.0561 107.362 98.7898 106.963 98.7898 106.883C98.7898 106.59 93.8104 96.4184 93.411 95.9124C93.0915 95.4864 92.9583 95.5663 91.9465 96.9776C88.5647 101.744 83.532 105.499 78.2863 107.123C74.4519 108.348 72.5879 108.587 68.3541 108.428C64.7593 108.321 64.0137 108.215 61.6438 107.469C60.1793 107.016 57.9425 106.084 56.6644 105.445C55.3862 104.78 54.2412 104.247 54.1081 104.247C53.9483 104.247 53.7885 106.51 53.7353 109.759C53.6554 113.593 53.5223 115.537 53.256 116.096C51.8447 119.292 50.9926 120.57 49.1819 122.274C47.8771 123.499 44.3889 125.31 43.1373 125.416C42.9243 125.443 42.3918 125.549 41.9657 125.683C40.5811 126.082 40.4745 125.576 40.5012 119.691C40.5278 116.842 40.5278 107.975 40.5012 99.9865C40.4745 82.199 40.6876 74.6899 41.2201 74.6899C41.3266 74.6899 41.4065 74.2905 41.4332 73.8112C41.4864 71.3082 44.1226 65.1837 46.1996 62.7872C46.3327 62.6008 46.9984 61.8286 47.6641 61.0564C51.4719 56.503 57.4632 53.2278 64.3066 51.9496C66.783 51.4703 73.0938 51.5502 75.2241 52.0828ZM79.8307 115.378C80.816 116.017 81.2953 117.268 81.4284 119.531C81.5615 121.848 81.1621 124.165 80.4698 124.937C79.3514 126.135 76.662 126.481 75.1974 125.576C73.866 124.777 73.4933 123.606 73.4933 120.357C73.4933 116.496 74.0258 115.431 76.2892 114.872C77.3277 114.605 79.0319 114.845 79.8307 115.378ZM59.6467 117.428V119.958H62.5758H65.5049V117.428C65.5049 115.058 65.5315 114.898 66.0374 114.898C66.57 114.898 66.57 115.031 66.5167 120.41C66.4368 125.443 66.3836 125.949 65.9842 126.029C65.5581 126.109 65.5049 125.869 65.5049 123.579V121.023H62.5758H59.6467V123.552C59.6467 125.896 59.6201 126.082 59.1141 126.082C58.6082 126.082 58.5816 125.896 58.5816 120.49C58.5816 115.085 58.6082 114.898 59.1141 114.898C59.6201 114.898 59.6467 115.085 59.6467 117.428ZM70.5642 120.517C70.5642 125.709 70.5375 126.109 70.1115 126.029C69.6855 125.949 69.6322 125.443 69.5523 120.41C69.4991 115.031 69.4991 114.898 70.0316 114.898C70.5375 114.898 70.5642 115.058 70.5642 120.517ZM86.6209 117.481C87.5528 118.919 88.9109 120.996 89.6298 122.088L90.9346 124.085L91.0145 119.478C91.0677 115.111 91.0944 114.898 91.6003 114.898C92.1329 114.898 92.1329 115.058 92.0796 120.41C91.9731 127.626 92.0263 127.6 88.2185 121.715C86.6209 119.292 85.2628 117.295 85.1563 117.295C85.0498 117.295 84.9167 119.239 84.89 121.608C84.8102 125.256 84.7569 125.949 84.4107 125.949C84.0646 125.949 84.0113 125.123 83.9314 120.41C83.8782 115.031 83.8782 114.898 84.4107 114.898C84.8102 114.898 85.4226 115.617 86.6209 117.481ZM100.228 117.614C102.092 122.647 103.077 125.416 103.13 125.683C103.157 125.816 102.944 125.975 102.651 126.029C102.198 126.082 102.012 125.842 101.612 124.751L101.133 123.393L98.4703 123.472L95.8075 123.552L95.3548 124.751C95.0619 125.523 94.7424 125.949 94.4495 125.949C94.2098 125.949 93.9702 125.842 93.9702 125.736C93.9436 125.629 94.7956 123.126 95.8608 120.197C97.7247 115.138 97.8312 114.898 98.4969 114.898C99.1626 114.898 99.2958 115.111 100.228 117.614ZM2.68943 123.339C2.44978 123.765 2.42315 123.765 2.39652 123.366C2.39652 123.126 2.4764 122.7 2.58292 122.434C2.76931 122.008 2.79594 121.981 2.87582 122.407C2.92908 122.674 2.8492 123.073 2.68943 123.339ZM117.962 124.271L119.16 124.83L117.829 125.256C114.341 126.375 109.095 129.89 103.583 134.843L102.385 135.908L103.13 136.6C103.53 136.973 103.849 137.505 103.849 137.798C103.849 138.331 102.837 140.195 102.571 140.195C102.465 140.195 101.985 139.955 101.479 139.636C100.707 139.183 100.627 138.997 100.76 138.304C100.84 137.878 100.814 137.532 100.68 137.532C100.494 137.532 96.633 141.579 94.4761 144.056C92.2127 146.665 90.3488 149.594 90.0292 151.086C89.8428 151.991 89.7896 152.044 88.9375 151.964C86.3013 151.698 84.7036 149.408 85.0498 146.426C85.2895 144.429 86.2481 141.899 88.5913 137.212C90.8281 132.686 91.6802 130.476 91.4672 129.783C91.2275 129.064 89.8428 128.905 87.1534 129.277C79.4846 130.289 72.2417 133.032 68.9132 136.147C67.4221 137.559 67.0759 138.677 67.7949 139.795C68.8334 141.366 71.6027 142.112 76.3691 142.032C78.1798 142.006 79.6976 142.059 79.7775 142.112C80.0437 142.378 79.0319 142.937 77.9401 143.151C76.2892 143.443 72.4548 142.964 69.9784 142.139C67.0759 141.18 65.5049 139.769 65.5049 138.091C65.5049 137.479 65.6913 136.627 65.9043 136.227C66.4901 135.056 68.7268 133.218 71.0701 131.993C76.4223 129.144 87.2866 126.721 90.6683 127.653C91.9198 127.973 93.4376 129.038 93.9169 129.89C94.7956 131.461 94.0234 134.843 91.5737 140.088C90.189 143.097 89.2038 145.84 89.2038 146.745C89.2038 147.384 89.3635 147.225 90.5085 145.627C94.0501 140.568 104.595 130.369 110.08 126.668C112.477 125.017 112.983 124.751 114.9 123.952C115.779 123.579 116.71 123.659 117.962 124.271ZM2.31664 126.934C2.29001 130.05 2.50303 131.168 3.75455 134.097C4.42025 135.641 6.28421 138.278 7.56235 139.449C7.9884 139.875 8.25468 140.275 8.17479 140.381C7.90851 140.647 6.76351 139.502 5.45874 137.665C3.24861 134.55 1.86396 130.689 1.86396 127.6C1.86396 126.082 2.10361 123.952 2.26338 123.952C2.31664 123.952 2.34326 125.31 2.31664 126.934ZM5.03269 128.372C5.03269 129.783 5.16583 131.354 5.3256 131.834C5.51199 132.34 5.59188 132.899 5.51199 133.085C5.3256 133.618 4.81967 131.408 4.63327 129.251C4.4735 127.413 4.60664 125.816 4.92618 125.816C4.97943 125.816 5.03269 126.961 5.03269 128.372ZM120.971 132.393C121.53 132.792 122.116 133.325 122.249 133.591C122.542 134.15 122.276 134.843 118.921 142.032C117.669 144.748 116.631 147.091 116.631 147.304C116.631 148.183 118.148 147.331 119.879 145.494C121.93 143.337 122.409 142.618 122.755 141.127C122.941 140.328 123.181 139.662 123.288 139.662C123.394 139.662 123.98 140.035 124.566 140.461C125.311 140.994 125.684 141.473 125.684 141.872C125.684 142.192 125.205 143.443 124.619 144.668C123.154 147.704 123.234 148.183 124.912 146.372C126.936 144.242 128.027 142.671 128.507 141.26C128.773 140.461 129.039 139.742 129.066 139.689C129.199 139.476 131.276 141.18 131.436 141.606C131.569 142.059 131.729 141.979 132.661 140.994C133.246 140.381 134.019 139.795 134.365 139.636C135.244 139.316 136.681 139.902 137.267 140.834C137.72 141.5 137.693 141.579 136.335 144.322C135.563 145.867 135.004 147.198 135.11 147.304C135.323 147.544 136.921 145.92 139.211 143.071C140.116 141.952 141.235 140.754 141.688 140.434C143.285 139.316 146.347 139.502 147.013 140.781C147.466 141.606 146.88 141.979 146.294 141.287C145.682 140.594 145.282 140.594 144.164 141.26C143.418 141.739 140.33 146.106 140.33 146.692C140.33 147.571 143.152 145.041 144.643 142.804C145.069 142.192 145.495 141.659 145.602 141.659C145.975 141.659 147.492 142.698 147.626 143.017C147.705 143.204 147.359 144.162 146.853 145.174C145.282 148.343 146.481 147.89 149.33 144.269C150.288 143.017 150.874 142.458 150.927 142.724C151.061 143.337 149.889 145.174 148.132 147.091C146.8 148.556 146.427 148.796 145.655 148.796C144.51 148.796 143.791 147.944 143.791 146.586V145.574L142.087 147.278C141.022 148.343 140.17 148.982 139.797 148.982C138.838 148.982 137.667 148.13 137.667 147.464C137.667 146.665 137.56 146.692 136.522 147.677C135.11 149.062 133.965 149.248 133.007 148.29C132.421 147.677 132.528 146.452 133.433 143.816C133.859 142.538 134.178 141.34 134.125 141.18C133.992 140.727 131.942 142.751 130.61 144.722C129.705 146.026 129.306 146.878 129.226 147.757C129.093 148.902 129.039 148.955 128.374 148.822C127.282 148.556 126.776 147.944 126.696 146.772L126.616 145.68L125.844 146.799C125.072 147.944 123.687 148.982 122.968 148.982C122.728 148.982 122.222 148.716 121.823 148.396C121.157 147.89 121.104 147.731 121.264 146.612L121.424 145.414L120.172 146.612C118.042 148.636 116.577 149.248 115.193 148.742C114.261 148.37 114.074 147.81 114.447 146.479C114.607 145.893 114.687 145.334 114.607 145.281C114.554 145.201 114.101 145.52 113.622 145.973C112.557 146.985 111.278 147.651 110.373 147.651C109.974 147.651 109.308 147.89 108.882 148.183C107.098 149.488 104.009 148.955 103.476 147.251C103.317 146.799 103.183 146.399 103.157 146.346C103.104 146.293 102.704 146.692 102.225 147.225C101.027 148.609 99.9881 149.115 99.0828 148.716C97.7247 148.157 97.6448 147.624 98.3904 145.041C98.7898 143.763 99.2692 142.059 99.4822 141.26C99.6952 140.461 99.9349 139.769 100.015 139.689C100.254 139.423 102.385 141.18 102.465 141.713C102.518 142.006 102.065 143.284 101.479 144.562C100.308 147.012 100.201 147.491 100.734 147.331C101.16 147.171 104.408 143.39 105.527 141.713C106.938 139.609 109.148 138.917 111.092 139.955C112.477 140.701 112.716 143.364 111.571 145.361L111.012 146.372L111.625 146.159C112.45 145.92 113.222 145.281 114.58 143.763C115.486 142.751 115.992 141.739 116.95 139.13C118.095 135.961 119.24 132.712 119.453 131.993C119.586 131.541 119.799 131.594 120.971 132.393ZM6.36409 135.162C6.71025 136.041 7.72212 137.905 8.68073 139.316C9.6127 140.727 10.3583 141.926 10.305 141.952C10.1186 142.139 8.25468 140.674 8.38782 140.488C8.4677 140.355 8.01503 139.236 7.37595 138.011C5.9913 135.242 5.59188 134.337 5.59188 133.884C5.59188 133.218 5.77827 133.538 6.36409 135.162ZM126.163 136.467C127.202 137.106 127.282 137.958 126.456 139.289C126.163 139.795 125.844 140.195 125.791 140.195C125.338 140.195 124.113 139.316 124.033 138.943C123.9 138.304 124.672 135.934 125.018 135.934C125.178 135.934 125.684 136.174 126.163 136.467ZM56.0519 147.384C70.218 147.864 71.1766 147.917 71.2831 147.997C71.3364 148.05 69.1795 148.183 66.5167 148.29C63.8273 148.37 58.7147 148.583 55.1199 148.716C51.5252 148.849 43.4569 149.035 37.1727 149.115C27.1073 149.248 25.7759 149.222 25.909 148.876C26.0155 148.636 25.8824 148.343 25.6161 148.21C25.1901 147.944 25.1901 147.944 25.6161 147.917C25.909 147.917 26.0155 147.784 25.9357 147.517C25.8025 147.171 27.1339 147.118 37.0395 147.118C43.2439 147.118 51.8181 147.225 56.0519 147.384Z" fill="#BE185D"/>
<path d="M34.3768 6.68204C34.3768 6.97494 34.4567 7.05483 34.5366 6.8418C34.6165 6.65541 34.5898 6.41576 34.5099 6.33587C34.4301 6.22936 34.3502 6.38913 34.3768 6.68204Z" fill="#BE185D"/>
<path d="M30.5156 7.66727C30.5955 7.93355 30.7553 8.06669 30.8351 7.9868C30.915 7.90692 30.8351 7.69389 30.6487 7.5075C30.3825 7.26785 30.3558 7.29448 30.5156 7.66727Z" fill="#BE185D"/>
<path d="M34.5099 8.30637C34.3501 8.67916 34.3767 8.70579 34.643 8.46614C34.8294 8.27974 34.9093 8.06672 34.8294 7.98684C34.7495 7.90695 34.5898 8.04009 34.5099 8.30637Z" fill="#BE185D"/>
<path d="M35.0957 46.3844C35.2821 46.4643 35.5217 46.4376 35.6016 46.3578C35.7081 46.2779 35.5484 46.198 35.2555 46.2246C34.9626 46.2246 34.8827 46.3045 35.0957 46.3844Z" fill="#BE185D"/>
<path d="M39.6757 46.7305C39.6757 46.8637 39.8088 46.9968 39.9419 46.9968C40.1017 46.9968 40.2082 46.8637 40.2082 46.7305C40.2082 46.5708 40.1017 46.4643 39.9419 46.4643C39.8088 46.4643 39.6757 46.5708 39.6757 46.7305Z" fill="#BE185D"/>
<path d="M35.2289 47.6625C35.2289 47.8756 35.3354 48.062 35.4685 48.062C35.575 48.062 35.6816 47.9554 35.6816 47.8223C35.6816 47.6625 35.575 47.5028 35.4685 47.4229C35.3354 47.343 35.2289 47.4495 35.2289 47.6625Z" fill="#BE185D"/>
<path d="M34.0306 49.5265C33.7643 50.0591 33.5512 51.5502 33.4447 53.9201C33.3382 55.8906 33.1518 59.5386 33.0187 62.0417C32.7524 66.2489 32.6193 68.5389 31.9536 78.2847C31.8204 80.3351 31.5808 84.276 31.421 87.072C31.2612 89.8413 31.0216 94.1018 30.8885 96.5249C30.7553 98.9481 30.5157 103.315 30.3559 106.244C30.1961 109.173 29.8766 114.046 29.6636 117.055C29.4772 120.064 29.2908 123.153 29.2908 123.898V125.283H30.3559C30.9417 125.283 31.421 125.257 31.421 125.203C31.4476 125.177 31.5009 124.058 31.5542 122.753C32.0068 114.153 32.2465 108.587 32.4861 102.516C32.6193 98.7084 32.8057 94.2083 32.8855 92.5307C33.0986 87.711 33.2583 83.6103 33.5512 76.1545C33.711 72.3467 33.9507 66.9412 34.0838 64.1719C34.2169 61.376 34.4033 57.4883 34.4832 55.5178C34.5897 53.5473 34.6963 51.4437 34.7495 50.8579C34.8028 50.2721 34.7495 49.5531 34.643 49.2602C34.4566 48.7809 34.4033 48.8076 34.0306 49.5265Z" fill="#BE185D"/>
<path d="M31.6073 50.3786C31.3677 50.8313 31.128 53.068 30.915 56.1835C30.5422 62.0949 30.2227 66.3288 29.6635 72.9591C29.4505 75.5953 29.2108 78.5244 29.1575 79.483C28.838 83.9299 28.4652 89.2288 28.2256 92.3976C28.0924 94.2882 27.8261 97.7232 27.6664 99.9866C27.5332 102.25 27.267 105.552 27.1338 107.309C26.9208 110.079 26.6279 114.046 25.9622 123.339C25.8024 125.656 25.9089 125.949 27.0007 125.656C27.9859 125.416 28.1457 124.538 28.4918 117.96C28.6516 114.738 28.9445 109.812 29.1575 107.043C29.5037 102.17 29.77 97.7764 30.3558 87.2051C30.8884 77.5658 31.634 65.0773 31.9535 60.9765C32.0866 59.2191 32.273 55.9439 32.3529 53.7071C32.5127 49.5798 32.3529 48.8608 31.6073 50.3786Z" fill="#BE185D"/>
<path d="M7.7754 55.5977C6.87005 55.9172 5.75167 56.5296 5.299 56.9557C4.58004 57.648 4.50016 57.8877 4.60667 58.793C4.68655 59.3522 4.79306 59.8848 4.87295 59.938C5.08597 60.1511 8.62749 58.3137 9.63936 57.4616C10.0121 57.1421 9.98552 54.9852 9.61273 54.9852C9.53285 54.9852 8.70738 55.2781 7.7754 55.5977Z" fill="#BE185D"/>
<path d="M9.71926 76.9267C8.78728 78.0184 8.01507 80.0688 7.29611 83.344C6.92332 85.0748 6.87006 86.1666 7.0032 89.4152C7.10971 91.5721 7.32274 93.6224 7.48251 93.9153C7.80204 94.5011 7.6689 99.0812 7.32274 100.146C7.16297 100.652 7.26948 100.732 8.44111 100.865C9.13344 100.945 9.90565 100.892 10.1187 100.759C10.4116 100.572 10.3317 100.546 9.8524 100.652C9.37309 100.785 9.29321 100.732 9.55949 100.572C9.82577 100.359 9.90565 99.6137 9.87903 97.4302C9.87903 95.8592 9.79914 94.5278 9.71926 94.4479C9.63937 94.368 9.69263 94.1816 9.82577 94.0218C9.95891 93.8621 9.90565 93.0366 9.69263 92.1313C9.10681 89.3087 8.97367 85.1814 9.39972 82.7848C9.61275 81.6132 9.74589 80.2818 9.69263 79.8558C9.58612 79.2167 9.61275 79.1634 9.82577 79.6161C10.0388 80.0422 10.0654 79.909 10.0388 79.0569C10.0122 78.4445 9.90565 77.9918 9.79914 78.0717C9.50623 78.2314 9.53286 77.9385 9.87903 77.2995C10.1986 76.687 10.1187 76.4474 9.71926 76.9267Z" fill="#BE185D"/>
<path d="M40.8207 13.7385C40.6343 13.9249 40.4745 14.2178 40.4745 14.4042C40.4745 14.5906 40.0219 14.8302 39.4893 14.99C38.797 15.1764 38.6638 15.2563 39.0633 15.2829C39.4627 15.3095 39.8887 15.6823 40.3414 16.348C40.9538 17.3599 41.0337 17.3865 41.8592 17.1469C43.164 16.7741 43.7498 16.0551 43.5368 15.0965C43.4569 14.6438 43.2172 14.1645 43.0308 14.0048C42.4716 13.5255 41.1669 13.3923 40.8207 13.7385Z" fill="#BE185D"/>
<path d="M40.2615 20.4221C39.9153 20.5818 39.7023 20.8747 39.7822 21.0345C39.8354 21.2209 39.7822 21.4872 39.6224 21.6469C39.4094 21.86 39.4094 22.073 39.6757 22.3659C39.8621 22.5789 39.9153 22.7653 39.7822 22.7653C39.1697 22.792 40.8739 23.8304 41.513 23.8304C43.1639 23.8038 43.6965 22.1529 42.4716 20.8215C41.726 20.0493 41.2467 19.9694 40.2615 20.4221Z" fill="#BE185D"/>
<path d="M66.57 65.024C65.2386 65.2636 62.6557 66.1423 61.6172 66.7015C58.0224 68.6986 55.7324 71.5478 54.3211 75.7551C53.8418 77.2196 53.682 81.5333 54.0282 83.2908C55.0933 88.3767 59.8597 93.223 65.1054 94.6343C71.363 96.2852 78.6058 93.5159 82.0408 88.1903C83.7717 85.5009 84.2776 83.6103 84.2776 79.6161C84.2776 76.261 84.251 76.1012 83.4255 74.3438C81.6414 70.5892 79.0319 67.6335 76.3158 66.3021C73.8927 65.1305 69.4192 64.5447 66.57 65.024Z" fill="#BE185D"/>
<path d="M41.0603 78.2847C41.0603 79.5362 41.1136 80.2019 41.2467 79.8824C41.3532 79.5895 41.3532 78.6309 41.2733 77.7522L41.0869 76.1545L41.0603 78.2847Z" fill="#BE185D"/>
<path d="M41.6196 109.706C41.6196 110.292 41.6729 110.505 41.7261 110.158C41.7794 109.839 41.7794 109.36 41.7261 109.093C41.6462 108.854 41.593 109.12 41.6196 109.706Z" fill="#BE185D"/>
<path d="M41.5929 113.833C41.5929 114.339 41.6462 114.552 41.726 114.286C41.7793 114.046 41.7793 113.62 41.726 113.354C41.6462 113.114 41.5929 113.327 41.5929 113.833Z" fill="#BE185D"/>
<path d="M41.8059 124.191C41.8059 124.325 41.939 124.538 42.0722 124.617C42.232 124.697 42.3385 124.671 42.3385 124.511C42.3385 124.378 42.232 124.165 42.0722 124.085C41.939 124.005 41.8059 124.032 41.8059 124.191Z" fill="#BE185D"/>
<path d="M75.9164 116.07C74.8246 116.682 74.585 117.481 74.5583 120.543C74.5583 123.206 74.6116 123.419 75.2507 124.191C75.8631 124.91 76.1028 125.017 77.301 125.017C78.0732 125.017 78.8987 124.83 79.1384 124.644C79.9106 124.058 80.4165 122.461 80.4165 120.597C80.4165 118.36 79.9905 116.869 79.1384 116.203C78.3662 115.617 76.8484 115.537 75.9164 116.07Z" fill="#BE185D"/>
<path d="M97.4851 118.679C96.0738 122.647 95.9939 122.354 98.3372 122.354C99.4556 122.354 100.414 122.248 100.494 122.114C100.654 121.875 98.71 116.23 98.4437 116.23C98.4171 116.23 97.9644 117.348 97.4851 118.679Z" fill="#BE185D"/>
<path d="M108.003 140.594C107.497 141.127 107.444 141.526 107.923 141.526C108.11 141.526 108.403 141.659 108.589 141.846C108.829 142.085 108.722 142.352 108.056 143.044C107.231 143.896 107.204 143.976 107.604 144.668C107.817 145.068 108.163 145.387 108.376 145.387C108.908 145.387 110.027 142.458 109.92 141.287C109.84 140.488 109.734 140.328 109.148 140.248C108.749 140.195 108.243 140.355 108.003 140.594Z" fill="#BE185D"/>
<path d="M106.246 146.985C106.246 147.384 106.405 147.651 106.619 147.651C107.204 147.651 107.417 147.145 107.045 146.719C106.565 146.133 106.246 146.239 106.246 146.985Z" fill="#BE185D"/>
</g>
<path d="M168.907 64.8958V29.1401H183.014C185.726 29.1401 188.036 29.6581 189.945 30.694C191.854 31.7182 193.309 33.144 194.31 34.9714C195.323 36.7871 195.829 38.8822 195.829 41.2566C195.829 43.631 195.317 45.726 194.292 47.5417C193.268 49.3575 191.784 50.7716 189.84 51.7842C187.908 52.7968 185.569 53.3032 182.822 53.3032H173.831V47.2449H181.6C183.055 47.2449 184.254 46.9947 185.196 46.4942C186.151 45.9821 186.861 45.2779 187.326 44.3817C187.804 43.4738 188.042 42.4321 188.042 41.2566C188.042 40.0694 187.804 39.0335 187.326 38.1489C186.861 37.2527 186.151 36.5601 185.196 36.0713C184.242 35.5708 183.032 35.3206 181.565 35.3206H176.467V64.8958H168.907ZM208.037 49.3924V64.8958H200.599V29.1401H207.827V42.8104H208.142C208.747 41.2275 209.725 39.9879 211.075 39.0917C212.425 38.1838 214.118 37.7299 216.155 37.7299C218.018 37.7299 219.641 38.1373 221.026 38.952C222.423 39.7551 223.505 40.9132 224.274 42.4263C225.053 43.9278 225.438 45.726 225.426 47.8211V64.8958H217.988V49.148C218 47.4952 217.581 46.209 216.731 45.2896C215.893 44.3701 214.718 43.9103 213.205 43.9103C212.192 43.9103 211.296 44.1256 210.516 44.5563C209.748 44.9869 209.143 45.6155 208.7 46.4418C208.27 47.2566 208.049 48.2401 208.037 49.3924ZM231.279 64.8958V38.0791H238.716V64.8958H231.279ZM235.015 34.6222C233.909 34.6222 232.961 34.2556 232.169 33.5223C231.39 32.7774 231 31.887 231 30.8511C231 29.8269 231.39 28.9481 232.169 28.2148C232.961 27.4699 233.909 27.0975 235.015 27.0975C236.121 27.0975 237.064 27.4699 237.844 28.2148C238.635 28.9481 239.031 29.8269 239.031 30.8511C239.031 31.887 238.635 32.7774 237.844 33.5223C237.064 34.2556 236.121 34.6222 235.015 34.6222ZM256.791 65.4196C254.079 65.4196 251.733 64.8434 249.755 63.6912C247.788 62.5272 246.269 60.9094 245.198 58.8376C244.127 56.7542 243.592 54.339 243.592 51.5922C243.592 48.8221 244.127 46.4011 245.198 44.3293C246.269 42.2459 247.788 40.628 249.755 39.4758C251.733 38.3118 254.079 37.7299 256.791 37.7299C259.503 37.7299 261.842 38.3118 263.809 39.4758C265.788 40.628 267.313 42.2459 268.383 44.3293C269.454 46.4011 269.99 48.8221 269.99 51.5922C269.99 54.339 269.454 56.7542 268.383 58.8376C267.313 60.9094 265.788 62.5272 263.809 63.6912C261.842 64.8434 259.503 65.4196 256.791 65.4196ZM256.826 59.6582C258.059 59.6582 259.089 59.309 259.916 58.6106C260.742 57.9006 261.365 56.9346 261.784 55.7125C262.215 54.4904 262.43 53.0995 262.43 51.5398C262.43 49.9802 262.215 48.5893 261.784 47.3672C261.365 46.145 260.742 45.179 259.916 44.469C259.089 43.759 258.059 43.404 256.826 43.404C255.58 43.404 254.533 43.759 253.683 44.469C252.845 45.179 252.211 46.145 251.78 47.3672C251.361 48.5893 251.152 49.9802 251.152 51.5398C251.152 53.0995 251.361 54.4904 251.78 55.7125C252.211 56.9346 252.845 57.9006 253.683 58.6106C254.533 59.309 255.58 59.6582 256.826 59.6582ZM282.263 49.3924V64.8958H274.826V38.0791H281.914V42.8104H282.228C282.822 41.2507 283.817 40.017 285.214 39.1091C286.61 38.1896 288.304 37.7299 290.294 37.7299C292.156 37.7299 293.78 38.1373 295.165 38.952C296.55 39.7667 297.627 40.9307 298.395 42.4438C299.163 43.9452 299.547 45.7377 299.547 47.8211V64.8958H292.11V49.148C292.122 47.5068 291.703 46.2265 290.853 45.307C290.003 44.3759 288.833 43.9103 287.344 43.9103C286.343 43.9103 285.458 44.1256 284.69 44.5563C283.933 44.9869 283.34 45.6155 282.909 46.4418C282.49 47.2566 282.275 48.2401 282.263 49.3924ZM313.056 65.4021C311.345 65.4021 309.82 65.1053 308.482 64.5117C307.143 63.9065 306.084 63.0161 305.304 61.8405C304.536 60.6533 304.152 59.1751 304.152 57.406C304.152 55.9162 304.426 54.6649 304.973 53.6523C305.52 52.6397 306.265 51.825 307.207 51.2081C308.15 50.5912 309.221 50.1256 310.42 49.8114C311.63 49.4971 312.899 49.276 314.226 49.148C315.786 48.985 317.043 48.8337 317.997 48.694C318.951 48.5427 319.644 48.3216 320.075 48.0306C320.505 47.7396 320.721 47.309 320.721 46.7386V46.6339C320.721 45.5282 320.371 44.6727 319.673 44.0674C318.986 43.4622 318.009 43.1596 316.74 43.1596C315.401 43.1596 314.336 43.4564 313.545 44.05C312.754 44.6319 312.23 45.3652 311.974 46.2498L305.095 45.6911C305.444 44.0616 306.131 42.6533 307.155 41.4661C308.179 40.2672 309.5 39.3477 311.118 38.7076C312.748 38.0558 314.633 37.7299 316.775 37.7299C318.265 37.7299 319.69 37.9045 321.052 38.2536C322.426 38.6028 323.642 39.144 324.701 39.8773C325.772 40.6106 326.616 41.5534 327.233 42.7056C327.85 43.8463 328.158 45.2139 328.158 46.8085V64.8958H321.105V61.1771H320.895C320.465 62.0151 319.888 62.7542 319.167 63.3944C318.445 64.0229 317.578 64.5175 316.565 64.8784C315.553 65.2275 314.383 65.4021 313.056 65.4021ZM315.186 60.2692C316.28 60.2692 317.246 60.0539 318.084 59.6232C318.922 59.181 319.58 58.5874 320.057 57.8424C320.534 57.0975 320.773 56.2537 320.773 55.3109V52.4651C320.54 52.6164 320.22 52.7561 319.813 52.8841C319.417 53.0005 318.969 53.1111 318.468 53.2159C317.968 53.309 317.467 53.3963 316.967 53.4777C316.466 53.5476 316.013 53.6116 315.605 53.6698C314.732 53.7978 313.97 54.0015 313.318 54.2808C312.666 54.5602 312.16 54.9385 311.799 55.4157C311.438 55.8812 311.258 56.4632 311.258 57.1616C311.258 58.1742 311.625 58.9482 312.358 59.4836C313.103 60.0073 314.045 60.2692 315.186 60.2692ZM351.906 29.1401L360.549 56.3061H360.88L369.54 29.1401H377.92L365.594 64.8958H355.852L343.509 29.1401H351.906ZM382.084 64.8958V38.0791H389.521V64.8958H382.084ZM385.82 34.6222C384.714 34.6222 383.766 34.2556 382.974 33.5223C382.195 32.7774 381.805 31.887 381.805 30.8511C381.805 29.8269 382.195 28.9481 382.974 28.2148C383.766 27.4699 384.714 27.0975 385.82 27.0975C386.926 27.0975 387.869 27.4699 388.648 28.2148C389.44 28.9481 389.836 29.8269 389.836 30.8511C389.836 31.887 389.44 32.7774 388.648 33.5223C387.869 34.2556 386.926 34.6222 385.82 34.6222ZM407.596 65.4196C404.884 65.4196 402.538 64.8434 400.56 63.6912C398.593 62.5272 397.074 60.9094 396.003 58.8376C394.932 56.7542 394.397 54.339 394.397 51.5922C394.397 48.8221 394.932 46.4011 396.003 44.3293C397.074 42.2459 398.593 40.628 400.56 39.4758C402.538 38.3118 404.884 37.7299 407.596 37.7299C410.308 37.7299 412.647 38.3118 414.614 39.4758C416.593 40.628 418.118 42.2459 419.188 44.3293C420.259 46.4011 420.795 48.8221 420.795 51.5922C420.795 54.339 420.259 56.7542 419.188 58.8376C418.118 60.9094 416.593 62.5272 414.614 63.6912C412.647 64.8434 410.308 65.4196 407.596 65.4196ZM407.631 59.6582C408.864 59.6582 409.894 59.309 410.721 58.6106C411.547 57.9006 412.17 56.9346 412.589 55.7125C413.02 54.4904 413.235 53.0995 413.235 51.5398C413.235 49.9802 413.02 48.5893 412.589 47.3672C412.17 46.145 411.547 45.179 410.721 44.469C409.894 43.759 408.864 43.404 407.631 43.404C406.385 43.404 405.338 43.759 404.488 44.469C403.65 45.179 403.016 46.145 402.585 47.3672C402.166 48.5893 401.956 49.9802 401.956 51.5398C401.956 53.0995 402.166 54.4904 402.585 55.7125C403.016 56.9346 403.65 57.9006 404.488 58.6106C405.338 59.309 406.385 59.6582 407.631 59.6582ZM433.068 29.1401V64.8958H425.631V29.1401H433.068ZM439.026 64.8958V38.0791H446.463V64.8958H439.026ZM442.762 34.6222C441.656 34.6222 440.708 34.2556 439.916 33.5223C439.136 32.7774 438.747 31.887 438.747 30.8511C438.747 29.8269 439.136 28.9481 439.916 28.2148C440.708 27.4699 441.656 27.0975 442.762 27.0975C443.868 27.0975 444.811 27.4699 445.59 28.2148C446.382 28.9481 446.778 29.8269 446.778 30.8511C446.778 31.887 446.382 32.7774 445.59 33.5223C444.811 34.2556 443.868 34.6222 442.762 34.6222ZM459.859 49.3924V64.8958H452.421V38.0791H459.51V42.8104H459.824C460.417 41.2507 461.413 40.017 462.809 39.1091C464.206 38.1896 465.899 37.7299 467.89 37.7299C469.752 37.7299 471.376 38.1373 472.761 38.952C474.146 39.7667 475.222 40.9307 475.991 42.4438C476.759 43.9452 477.143 45.7377 477.143 47.8211V64.8958H469.705V49.148C469.717 47.5068 469.298 46.2265 468.448 45.307C467.599 44.3759 466.429 43.9103 464.939 43.9103C463.938 43.9103 463.054 44.1256 462.285 44.5563C461.529 44.9869 460.935 45.6155 460.505 46.4418C460.086 47.2566 459.87 48.2401 459.859 49.3924ZM490.652 65.4021C488.941 65.4021 487.416 65.1053 486.077 64.5117C484.739 63.9065 483.68 63.0161 482.9 61.8405C482.132 60.6533 481.748 59.1751 481.748 57.406C481.748 55.9162 482.021 54.6649 482.568 53.6523C483.115 52.6397 483.86 51.825 484.803 51.2081C485.746 50.5912 486.817 50.1256 488.015 49.8114C489.226 49.4971 490.495 49.276 491.821 49.148C493.381 48.985 494.638 48.8337 495.593 48.694C496.547 48.5427 497.239 48.3216 497.67 48.0306C498.101 47.7396 498.316 47.309 498.316 46.7386V46.6339C498.316 45.5282 497.967 44.6727 497.269 44.0674C496.582 43.4622 495.604 43.1596 494.335 43.1596C492.997 43.1596 491.932 43.4564 491.141 44.05C490.349 44.6319 489.825 45.3652 489.569 46.2498L482.69 45.6911C483.04 44.0616 483.726 42.6533 484.751 41.4661C485.775 40.2672 487.096 39.3477 488.714 38.7076C490.343 38.0558 492.229 37.7299 494.37 37.7299C495.86 37.7299 497.286 37.9045 498.648 38.2536C500.021 38.6028 501.238 39.144 502.297 39.8773C503.368 40.6106 504.211 41.5534 504.828 42.7056C505.445 43.8463 505.754 45.2139 505.754 46.8085V64.8958H498.7V61.1771H498.491C498.06 62.0151 497.484 62.7542 496.762 63.3944C496.041 64.0229 495.174 64.5175 494.161 64.8784C493.148 65.2275 491.979 65.4021 490.652 65.4021ZM492.782 60.2692C493.876 60.2692 494.842 60.0539 495.68 59.6232C496.518 59.181 497.175 58.5874 497.653 57.8424C498.13 57.0975 498.368 56.2537 498.368 55.3109V52.4651C498.136 52.6164 497.816 52.7561 497.408 52.8841C497.013 53.0005 496.564 53.1111 496.064 53.2159C495.563 53.309 495.063 53.3963 494.562 53.4777C494.062 53.5476 493.608 53.6116 493.201 53.6698C492.328 53.7978 491.565 54.0015 490.914 54.2808C490.262 54.5602 489.755 54.9385 489.395 55.4157C489.034 55.8812 488.853 56.4632 488.853 57.1616C488.853 58.1742 489.22 58.9482 489.953 59.4836C490.698 60.0073 491.641 60.2692 492.782 60.2692ZM168.907 88.1401H178.23L188.077 112.163H188.496L198.343 88.1401H207.666V123.896H200.333V100.623H200.036L190.783 123.721H185.79L176.537 100.536H176.24V123.896H168.907V88.1401ZM230.952 112.478V97.0791H238.389V123.896H231.248V119.025H230.969C230.364 120.596 229.357 121.859 227.949 122.813C226.552 123.768 224.847 124.245 222.833 124.245C221.041 124.245 219.464 123.838 218.102 123.023C216.74 122.208 215.675 121.05 214.907 119.549C214.15 118.047 213.766 116.249 213.755 114.154V97.0791H221.192V112.827C221.204 114.41 221.629 115.661 222.467 116.581C223.305 117.5 224.428 117.96 225.836 117.96C226.732 117.96 227.57 117.756 228.35 117.349C229.13 116.93 229.759 116.313 230.236 115.498C230.725 114.683 230.963 113.677 230.952 112.478ZM266.651 104.726L259.842 105.145C259.725 104.563 259.475 104.039 259.091 103.574C258.707 103.097 258.201 102.718 257.572 102.439C256.955 102.148 256.216 102.002 255.355 102.002C254.202 102.002 253.231 102.247 252.439 102.736C251.648 103.213 251.252 103.853 251.252 104.656C251.252 105.296 251.508 105.838 252.02 106.28C252.532 106.722 253.411 107.077 254.656 107.345L259.51 108.323C262.117 108.858 264.061 109.719 265.341 110.906C266.621 112.094 267.262 113.653 267.262 115.585C267.262 117.343 266.744 118.885 265.708 120.212C264.684 121.539 263.275 122.575 261.483 123.32C259.702 124.053 257.648 124.42 255.32 124.42C251.77 124.42 248.942 123.68 246.835 122.202C244.74 120.712 243.512 118.687 243.151 116.127L250.466 115.743C250.687 116.825 251.223 117.651 252.072 118.222C252.922 118.78 254.01 119.06 255.337 119.06C256.641 119.06 257.688 118.809 258.48 118.309C259.283 117.797 259.69 117.139 259.702 116.336C259.69 115.661 259.405 115.108 258.846 114.678C258.288 114.235 257.427 113.898 256.263 113.665L251.619 112.74C249 112.216 247.05 111.308 245.77 110.016C244.501 108.724 243.867 107.077 243.867 105.075C243.867 103.353 244.332 101.869 245.264 100.623C246.206 99.3778 247.527 98.4176 249.227 97.7425C250.938 97.0674 252.94 96.7299 255.233 96.7299C258.62 96.7299 261.285 97.4457 263.229 98.8773C265.184 100.309 266.325 102.259 266.651 104.726ZM271.945 123.896V97.0791H279.382V123.896H271.945ZM275.681 93.6222C274.575 93.6222 273.627 93.2556 272.835 92.5223C272.056 91.7774 271.666 90.887 271.666 89.8511C271.666 88.8269 272.056 87.9481 272.835 87.2148C273.627 86.4699 274.575 86.0975 275.681 86.0975C276.787 86.0975 277.73 86.4699 278.509 87.2148C279.301 87.9481 279.697 88.8269 279.697 89.8511C279.697 90.887 279.301 91.7774 278.509 92.5223C277.73 93.2556 276.787 93.6222 275.681 93.6222ZM297.457 124.42C294.71 124.42 292.347 123.838 290.368 122.674C288.401 121.498 286.888 119.869 285.829 117.785C284.782 115.702 284.258 113.304 284.258 110.592C284.258 107.845 284.787 105.436 285.847 103.364C286.917 101.281 288.436 99.6571 290.403 98.4932C292.37 97.3177 294.71 96.7299 297.422 96.7299C299.761 96.7299 301.81 97.1547 303.567 98.0044C305.325 98.854 306.716 100.047 307.74 101.583C308.764 103.12 309.329 104.924 309.433 106.996H302.415C302.217 105.657 301.693 104.581 300.844 103.766C300.006 102.939 298.906 102.526 297.544 102.526C296.392 102.526 295.385 102.84 294.524 103.469C293.674 104.086 293.01 104.988 292.533 106.175C292.056 107.362 291.817 108.8 291.817 110.487C291.817 112.198 292.05 113.653 292.516 114.852C292.993 116.051 293.662 116.965 294.524 117.593C295.385 118.222 296.392 118.536 297.544 118.536C298.394 118.536 299.156 118.361 299.831 118.012C300.518 117.663 301.082 117.157 301.525 116.493C301.979 115.818 302.275 115.009 302.415 114.066H309.433C309.317 116.115 308.758 117.919 307.757 119.479C306.768 121.027 305.4 122.237 303.655 123.11C301.909 123.983 299.843 124.42 297.457 124.42ZM331.877 123.896H323.776L336.119 88.1401H345.861L358.187 123.896H350.086L341.13 96.3109H340.851L331.877 123.896ZM331.37 109.841H350.505V115.743H331.37V109.841ZM373.219 124.42C370.472 124.42 368.11 123.838 366.131 122.674C364.164 121.498 362.651 119.869 361.592 117.785C360.544 115.702 360.02 113.304 360.02 110.592C360.02 107.845 360.55 105.436 361.609 103.364C362.68 101.281 364.199 99.6571 366.166 98.4932C368.133 97.3177 370.472 96.7299 373.184 96.7299C375.524 96.7299 377.572 97.1547 379.33 98.0044C381.087 98.854 382.478 100.047 383.502 101.583C384.527 103.12 385.091 104.924 385.196 106.996H378.178C377.98 105.657 377.456 104.581 376.606 103.766C375.768 102.939 374.668 102.526 373.307 102.526C372.154 102.526 371.147 102.84 370.286 103.469C369.437 104.086 368.773 104.988 368.296 106.175C367.819 107.362 367.58 108.8 367.58 110.487C367.58 112.198 367.813 113.653 368.278 114.852C368.756 116.051 369.425 116.965 370.286 117.593C371.147 118.222 372.154 118.536 373.307 118.536C374.156 118.536 374.919 118.361 375.594 118.012C376.28 117.663 376.845 117.157 377.287 116.493C377.741 115.818 378.038 115.009 378.178 114.066H385.196C385.08 116.115 384.521 117.919 383.52 119.479C382.531 121.027 381.163 122.237 379.417 123.11C377.671 123.983 375.605 124.42 373.219 124.42ZM397.605 124.402C395.894 124.402 394.369 124.105 393.031 123.512C391.692 122.906 390.633 122.016 389.853 120.841C389.085 119.653 388.701 118.175 388.701 116.406C388.701 114.916 388.974 113.665 389.521 112.652C390.068 111.64 390.813 110.825 391.756 110.208C392.699 109.591 393.77 109.126 394.969 108.811C396.179 108.497 397.448 108.276 398.775 108.148C400.334 107.985 401.591 107.834 402.546 107.694C403.5 107.543 404.193 107.322 404.623 107.031C405.054 106.74 405.269 106.309 405.269 105.739V105.634C405.269 104.528 404.92 103.673 404.222 103.067C403.535 102.462 402.557 102.16 401.289 102.16C399.95 102.16 398.885 102.456 398.094 103.05C397.302 103.632 396.778 104.365 396.522 105.25L389.644 104.691C389.993 103.062 390.68 101.653 391.704 100.466C392.728 99.2672 394.049 98.3477 395.667 97.7076C397.296 97.0558 399.182 96.7299 401.324 96.7299C402.813 96.7299 404.239 96.9045 405.601 97.2536C406.974 97.6028 408.191 98.144 409.25 98.8773C410.321 99.6106 411.165 100.553 411.781 101.706C412.398 102.846 412.707 104.214 412.707 105.808V123.896H405.653V120.177H405.444C405.013 121.015 404.437 121.754 403.715 122.394C402.994 123.023 402.127 123.518 401.114 123.878C400.101 124.228 398.932 124.402 397.605 124.402ZM399.735 119.269C400.829 119.269 401.795 119.054 402.633 118.623C403.471 118.181 404.129 117.587 404.606 116.842C405.083 116.098 405.322 115.254 405.322 114.311V111.465C405.089 111.616 404.769 111.756 404.361 111.884C403.966 112.001 403.518 112.111 403.017 112.216C402.517 112.309 402.016 112.396 401.516 112.478C401.015 112.548 400.561 112.612 400.154 112.67C399.281 112.798 398.519 113.002 397.867 113.281C397.215 113.56 396.709 113.938 396.348 114.416C395.987 114.881 395.807 115.463 395.807 116.162C395.807 117.174 396.173 117.948 396.907 118.484C397.651 119.007 398.594 119.269 399.735 119.269ZM428.359 124.332C426.322 124.332 424.477 123.809 422.824 122.761C421.183 121.702 419.879 120.148 418.913 118.099C417.959 116.039 417.482 113.514 417.482 110.522C417.482 107.45 417.976 104.895 418.966 102.858C419.955 100.809 421.27 99.2789 422.911 98.2663C424.564 97.242 426.374 96.7299 428.341 96.7299C429.843 96.7299 431.094 96.9859 432.095 97.4981C433.107 97.9986 433.922 98.6271 434.539 99.3836C435.168 100.129 435.645 100.862 435.971 101.583H436.198V88.1401H443.618V123.896H436.285V119.601H435.971C435.621 120.346 435.127 121.085 434.487 121.818C433.858 122.54 433.038 123.139 432.025 123.616C431.024 124.094 429.802 124.332 428.359 124.332ZM430.716 118.414C431.914 118.414 432.927 118.088 433.753 117.436C434.591 116.773 435.232 115.847 435.674 114.66C436.128 113.473 436.355 112.082 436.355 110.487C436.355 108.893 436.134 107.508 435.691 106.332C435.249 105.157 434.609 104.249 433.771 103.609C432.933 102.969 431.914 102.648 430.716 102.648C429.493 102.648 428.463 102.98 427.625 103.644C426.787 104.307 426.153 105.227 425.722 106.402C425.292 107.578 425.076 108.939 425.076 110.487C425.076 112.047 425.292 113.426 425.722 114.625C426.165 115.812 426.799 116.744 427.625 117.419C428.463 118.082 429.493 118.414 430.716 118.414ZM461.954 124.42C459.195 124.42 456.821 123.861 454.831 122.744C452.852 121.615 451.327 120.02 450.256 117.96C449.186 115.888 448.65 113.438 448.65 110.61C448.65 107.851 449.186 105.43 450.256 103.347C451.327 101.263 452.834 99.6397 454.778 98.4758C456.734 97.3118 459.026 96.7299 461.657 96.7299C463.426 96.7299 465.073 97.015 466.598 97.5854C468.134 98.144 469.473 98.9879 470.613 100.117C471.766 101.246 472.662 102.666 473.302 104.377C473.942 106.076 474.262 108.066 474.262 110.348V112.39H451.618V107.781H467.261C467.261 106.711 467.028 105.762 466.563 104.936C466.097 104.109 465.451 103.463 464.625 102.998C463.81 102.52 462.862 102.282 461.779 102.282C460.65 102.282 459.649 102.544 458.776 103.067C457.915 103.58 457.24 104.272 456.751 105.145C456.262 106.006 456.012 106.967 456 108.026V112.408C456 113.735 456.245 114.881 456.734 115.847C457.234 116.813 457.938 117.558 458.846 118.082C459.754 118.606 460.831 118.868 462.076 118.868C462.902 118.868 463.659 118.751 464.346 118.518C465.032 118.286 465.62 117.937 466.109 117.471C466.598 117.005 466.97 116.435 467.226 115.76L474.105 116.214C473.756 117.867 473.04 119.31 471.958 120.544C470.887 121.766 469.502 122.72 467.802 123.407C466.115 124.082 464.165 124.42 461.954 124.42ZM479.116 123.896V97.0791H486.204V101.81H486.518C487.077 100.239 488.008 98.9995 489.312 98.0917C490.615 97.1838 492.175 96.7299 493.991 96.7299C495.83 96.7299 497.395 97.1896 498.687 98.1091C499.979 99.017 500.84 100.251 501.271 101.81H501.55C502.097 100.274 503.087 99.0461 504.518 98.1266C505.962 97.1954 507.667 96.7299 509.634 96.7299C512.136 96.7299 514.167 97.5272 515.727 99.1217C517.298 100.705 518.084 102.951 518.084 105.861V123.896H510.664V107.327C510.664 105.838 510.268 104.72 509.477 103.975C508.685 103.23 507.696 102.858 506.509 102.858C505.159 102.858 504.105 103.289 503.349 104.15C502.592 105 502.214 106.123 502.214 107.519V123.896H495.003V107.17C495.003 105.855 494.625 104.807 493.868 104.028C493.124 103.248 492.14 102.858 490.918 102.858C490.092 102.858 489.347 103.067 488.683 103.486C488.031 103.894 487.513 104.47 487.129 105.215C486.745 105.948 486.553 106.809 486.553 107.799V123.896H479.116ZM527.59 133.952C526.647 133.952 525.763 133.876 524.936 133.725C524.122 133.585 523.447 133.405 522.911 133.184L524.587 127.632C525.46 127.9 526.246 128.045 526.944 128.068C527.654 128.092 528.265 127.929 528.777 127.58C529.301 127.23 529.726 126.637 530.052 125.799L530.488 124.664L520.869 97.0791H528.69L534.242 116.773H534.521L540.126 97.0791H548L537.577 126.794C537.076 128.237 536.395 129.494 535.534 130.565C534.684 131.648 533.608 132.48 532.304 133.062C531 133.655 529.429 133.952 527.59 133.952Z" fill="white"/>
<defs>
<clipPath id="clip0_4_3">
<rect y="0.131592" width="153.111" height="154.442" rx="11.1198" fill="white"/>
</clipPath>
</defs>
</svg>
