<svg width="128" height="128" viewBox="0 0 128 128" xmlns="http://www.w3.org/2000/svg">
  <!-- Background Rectangle with Rounded Corners and Gradient Border -->
  <rect x="2" y="2" width="124" height="124" rx="22.5" fill="#2C2C2C"/>
  <rect x="2" y="2" width="124" height="124" rx="22.5" stroke="url(#paint0_linear)" stroke-width="3"/>

  <!-- Central Elements Styled with Gradients and Updated Paths -->
  <path d="M77.78 11.93c10.57-10.57 27.72-10.57 38.29 0s10.57 27.72 0 38.29s-31.2 14.06-41.77 3.48s-7.1-31.2 3.48-41.77z" fill="#9e9e9e"></path>
  <path d="M119.43 16.04c-.02 8.82-3.39 17.63-10.12 24.35c-10.66 10.66-26.56 12.89-39.42 6.7c1.03 2.45 2.48 4.7 4.4 6.62c10.57 10.57 31.2 7.09 41.77-3.48c9.3-9.3 10.42-23.67 3.37-34.19z" fill="#757575"></path>
  <path d="M84.02 67.06c1.92-1.92-1.69-8.65-8.06-15.02c-6.37-6.37-13.1-9.98-15.02-8.06C59.92 45 5.22 105.37 4.67 105.92c-1.92 1.92.42 7.38 5.22 12.18s10.26 7.14 12.18 5.22c.56-.54 60.93-55.24 61.95-56.26z" fill="#616161"></path>

  <!-- Custom Center Element with Gradient -->
  <path fill-rule="evenodd" clip-rule="evenodd" d="M42 20.25C44.9515 20.2492 47.8693 20.8782 50.5583 22.095C53.2476 23.3119 55.6462 25.0886 57.5939 27.3065C59.5416 29.5244 60.9937 32.1324 61.853 34.9563C62.7123 37.7802 62.9591 40.755 62.5769 43.6819C62.4339 44.7771 61.4301 45.5491 60.3348 45.4061C59.2395 45.2631 58.4676 44.2592 58.6106 43.164C58.9191 40.8014 58.7198 38.4002 58.0262 36.1208C57.3326 33.8414 56.1605 31.7362 54.5883 29.9459C53.0161 28.1557 51.08 26.7215 48.9093 25.7393C46.7386 24.757 44.3832 24.2493 42.0006 24.25L42 24.25C37.5576 24.25 33.2972 26.0147 30.156 29.156C27.0147 32.2972 25.25 36.5576 25.25 41C25.25 45.4424 27.0147 49.7028 30.156 52.844C33.2972 55.9853 37.5576 57.75 42 57.75C43.1046 57.75 44 58.6454 44 59.75C44 60.8546 43.1046 61.75 42 61.75C36.4968 61.75 31.2189 59.5638 27.3275 55.6725C23.4362 51.7811 21.25 46.5032 21.25 41C21.25 35.4968 23.4362 30.2189 27.3275 26.3275C31.2188 22.4363 36.4964 20.2502 41.9994 20.25H42Z" fill="url(#paint1_linear)"/>

  <!-- Circle and Path with Gradient Effects -->
  <circle cx="56.9" cy="70.17" r="5.21" fill="#9e9e9e"></circle>
  <path d="M62.31 45.26l4.17-6.18c.59-.87 1.85-.93 2.52-.12l4.61 5.6c.5.61.47 1.5-.07 2.08l-5.29 5.62c-.64.68-1.72.66-2.33-.04c-1.01-1.16-2.5-3.06-3.71-5.37c-.27-.5-.22-1.12.1-1.59z" fill="#94d1e0"></path>

  <!-- Gradients Definitions -->
  <defs>
    <linearGradient id="paint0_linear" x1="0.5" y1="3.41667" x2="124" y2="128" gradientUnits="userSpaceOnUse">
      <stop stop-color="#F1B2A8"/>
      <stop offset="0.48" stop-color="#EC57A8"/>
      <stop offset="1" stop-color="#5B5AF7"/>
    </linearGradient>
    <linearGradient id="paint1_linear" x1="32.5" y1="24" x2="48" y2="62" gradientUnits="userSpaceOnUse">
      <stop stop-color="#F1B2A8"/>
      <stop offset="0.475" stop-color="#EC57A8"/>
      <stop offset="1" stop-color="#5B5AF7"/>
    </linearGradient>
  </defs>
</svg>
