<svg width="800px" height="800px" viewBox="0 0 64 64" xmlns="http://www.w3.org/2000/svg" xmlns:xlink="http://www.w3.org/1999/xlink" aria-hidden="true" role="img" class="iconify iconify--emojione-monotone" preserveAspectRatio="xMidYMid meet">
  <defs>
    <linearGradient id="paint0_linear" x1="0" y1="0" x2="64" y2="64" gradientUnits="userSpaceOnUse">
      <stop stop-color="#F1B2A8"/>
      <stop offset="0.48" stop-color="#EC57A8"/>
      <stop offset="1" stop-color="#5B5AF7"/>
    </linearGradient>
    <linearGradient id="paint1_linear" x1="32" y1="0" x2="32" y2="64" gradientUnits="userSpaceOnUse">
      <stop stop-color="#F1B2A8"/>
      <stop offset="0.48" stop-color="#EC57A8"/>
      <stop offset="1" stop-color="#5B5AF7"/>
    </linearGradient>
  </defs>

  <!-- Background rectangle with gradient -->
  <rect x="0" y="0" width="64" height="64" rx="16" fill="#2C2C2C" stroke="url(#paint0_linear)" stroke-width="3"/>

  <!-- Main path with gradient fill and applied styles -->
  <path d="M59.504 7.033l.538-.811l.624.624L62 4.924l-.66-.66l.658-.992l-1.271-1.269l-.991.656L59.078 2l-1.927 1.331l.626.626l-.811.536l-.224 1.266l-.536.355l-1.339-1.34l.562-.562l-1.827-.84l-.947.949l.838 1.827l.562-.562l1.175 1.176l-1.844 1.225l-2.198-2.197l-.814.813l2.507 2.509l-11.793 10.951c-2.028-1.899-5.074-4.303-8.26-4.303c-2.608 0-4.794 1.558-6.496 4.626c-.3.539-.502 1.169-.696 1.778c-.576 1.798-1.074 2.946-2.865 3.105l-14.89-14.89L2.985 12.4l1.437 1.438l.868.868l1.152 1.153v-.001l14.736 14.736a3.206 3.206 0 0 1-.962 1.117c-1.359 1.018-2.5 1.535-3.393 1.535c-.481 0-1.188-.135-1.757-1.299c-.266-.541-.823-1.119-1.588-1.119c-1.661 0-2.015 2.467-2.131 3.274c-.066.452-.472 1.521-2.807 1.677c-2.84.191-5.026 1.79-6.001 4.384c-1.317 3.511-.516 9.473 5.687 15.675c3.97 3.971 8.357 6.156 12.353 6.158h.002c4.232 0 7.326-2.589 7.697-6.441c.236-2.443 1.346-2.789 1.679-2.837c1.299-.187 3.051-.586 3.26-1.905c.113-.717-.318-1.43-1.104-1.815c-.708-.348-1.116-.777-1.247-1.315c-.224-.921.273-2.207 1.499-3.855a3.193 3.193 0 0 1 1.095-.95l12.43 12.43l2.245 2.245l2.023 2.023l1.437 1.437l2.023-4.896l-14.825-14.824c.171-1.922 1.488-2.346 3.104-2.863c.61-.195 1.24-.396 1.78-.697c2.716-1.507 4.253-3.404 4.565-5.64c.495-3.535-2.21-6.96-4.302-9.181l11.197-12.06l.428.428l.777-1.17l1.313 1.313l-.561.562l1.827.84l.947-.949l-.84-1.827l-.561.561l-1.477-1.478l.805-1.212l3.014 3.015l.813-.814l-2.94-2.942l.822-.146Z" fill="url(#paint1_linear)"/>
</svg>
