<?xml version="1.0" encoding="iso-8859-1"?>
<!-- Generator: Adobe Illustrator 19.0.0, SVG Export Plug-In . SVG Version: 6.00 Build 0)  -->
<!-- License: CC0. Made by SVG Repo: https://www.svgrepo.com/svg/12922/growth -->
<svg version="1.1" id="Layer_1" xmlns="http://www.w3.org/2000/svg" xmlns:xlink="http://www.w3.org/1999/xlink" x="0px" y="0px"
	 viewBox="0 0 511.999 511.999" style="enable-background:new 0 0 511.999 511.999;" xml:space="preserve">
<path style="fill:#A5EB78;" d="M172.903,79.434c-2.58-0.233-5.213,0.689-7.068,2.546c-1.861,1.861-2.795,4.454-2.546,7.073
	c7.077,74.219,66.202,133.215,140.584,140.27c0.28,0.025,0.56,0.043,0.836,0.043c2.33,0,4.579-0.922,6.237-2.585
	c1.861-1.861,2.795-4.454,2.546-7.073C306.414,145.482,247.289,86.49,172.903,79.434z"/>
<path style="fill:#8CD76E;" d="M303.873,229.323c0.28,0.025,0.56,0.043,0.836,0.043c2.33,0,4.579-0.922,6.237-2.585L166.024,81.86
	c-0.055,0.053-0.136,0.066-0.19,0.12c-1.861,1.861-2.795,4.454-2.546,7.073C170.365,163.272,229.491,222.268,303.873,229.323z"/>
<path style="fill:#A5EB78;" d="M471.491,35.321c2.58-0.233,5.213,0.689,7.068,2.546c1.861,1.861,2.795,4.454,2.546,7.073
	c-7.077,74.219-66.202,133.215-140.584,140.27c-0.28,0.025-0.56,0.043-0.836,0.043c-2.33,0-4.579-0.922-6.237-2.585
	c-1.861-1.861-2.795-4.454-2.546-7.073C337.979,101.369,397.105,42.378,471.491,35.321z"/>
<path style="fill:#8CD76E;" d="M340.52,185.211c-0.28,0.025-0.56,0.043-0.836,0.043c-2.33,0-4.579-0.922-6.237-2.585L478.369,37.747
	c0.055,0.053,0.136,0.066,0.19,0.12c1.861,1.861,2.795,4.454,2.546,7.073C474.027,119.158,414.903,178.154,340.52,185.211z"/>
<path style="fill:#F0C087;" d="M481.832,322.245c-11.616-2.97-23.609-0.431-32.962,7.867l-69.605,56.654
	c-2.45,1.995-5.391,3.295-8.516,3.764l-103.878,11.188l-1.997,0.012c-7.355,0-12.159-7.717-8.911-14.317
	c1.14-2.317,3.137-4.099,5.569-4.968l57.569-22.958c14.611-5.514,23.479-17.781,19.482-29.774
	c-4.835-14.506-16.908-15.438-31.612-11.763l-60.961,17.573l-92.561,6.172c-29.849,1.99-57.959,14.747-79.112,35.899l-43.78,43.78
	c-9.963,9.964-11.583,26.267-2.394,36.948c3.889,4.522,29.813,29.057,48.349,46.811c9.099,8.714,23.27,9.181,32.948,1.116
	l21.109-17.591c9.513-7.927,21.504-12.27,33.888-12.271l111.466-0.011c12.99-0.001,25.869-2.393,37.992-7.056l85.267-32.795
	c7.263-2.793,13.689-7.397,18.671-13.375l69.516-83.419C492.447,333.642,489.513,324.209,481.832,322.245z"/>
<g>
	<path style="fill:#73BE73;" d="M322.042,299.94c-4.872,0-8.822-3.946-8.822-8.822V61.752c0-19.458,15.83-35.287,35.287-35.287
		c4.872,0,8.822,3.95,8.822,8.822s-3.95,8.822-8.822,8.822c-9.73,0-17.644,7.913-17.644,17.644v229.367
		C330.864,295.995,326.914,299.94,322.042,299.94z"/>
	<path style="fill:#73BE73;" d="M322.042,247.949c-2.257,0-4.515-0.861-6.237-2.585l-96.73-96.73c-3.446-3.446-3.446-9.029,0-12.475
		c3.446-3.446,9.029-3.446,12.475,0l96.73,96.73c3.446,3.446,3.446,9.029,0,12.475C326.557,247.087,324.299,247.949,322.042,247.949
		z"/>
</g>
<path style="fill:#A5EB78;" d="M303.905,105.854c-0.301,0-0.606-0.014-0.912-0.042c-50.416-4.792-90.489-44.867-95.282-95.282
	c-0.272-2.857,0.748-5.686,2.777-7.716c2.03-2.026,4.831-3.026,7.716-2.777c50.416,4.792,90.489,44.867,95.282,95.282
	c0.272,2.857-0.748,5.686-2.777,7.716C308.896,104.848,306.448,105.854,303.905,105.854z"/>
<path style="fill:#73BE73;" d="M322.042,202.9c-2.257,0-4.515-0.861-6.237-2.585c-3.446-3.446-3.446-9.029,0-12.475l88.218-88.218
	c3.446-3.446,9.029-3.446,12.475,0c3.446,3.446,3.446,9.029,0,12.475l-88.218,88.218C326.557,202.039,324.299,202.9,322.042,202.9z"
	/>
<path style="fill:#8CD76E;" d="M302.995,105.811c0.305,0.029,0.611,0.042,0.912,0.042c2.542,0,4.99-1.006,6.804-2.82L210.489,2.813
	c-2.03,2.03-3.05,4.859-2.777,7.716C212.505,60.945,252.578,101.019,302.995,105.811z"/>
<path style="fill:#73BE73;" d="M322.042,123.504c-2.257,0-4.515-0.861-6.237-2.585l-61.443-61.443
	c-3.446-3.446-3.446-9.029,0-12.475c3.446-3.446,9.029-3.446,12.475,0l61.443,61.443c3.446,3.446,3.446,9.029,0,12.475
	C326.557,122.643,324.299,123.504,322.042,123.504z"/>
</svg>
